<mxfile host="Electron" agent="Mozilla/5.0 (X11; Linux x86_64) AppleWebKit/537.36 (KHTML, like Gecko) draw.io/26.0.16 Chrome/132.0.6834.196 Electron/34.2.0 Safari/537.36" version="26.0.16">
  <diagram id="C5RBs43oDa-KdzZeNtuy" name="Page-1">
    <mxGraphModel dx="3703" dy="1197" grid="1" gridSize="10" guides="1" tooltips="1" connect="1" arrows="1" fold="1" page="1" pageScale="1" pageWidth="827" pageHeight="1169" math="0" shadow="0">
      <root>
        <mxCell id="WIyWlLk6GJQsqaUBKTNV-0" />
        <mxCell id="WIyWlLk6GJQsqaUBKTNV-1" parent="WIyWlLk6GJQsqaUBKTNV-0" />
        <mxCell id="ykPFZneL_9SEnis5VbHR-42" style="edgeStyle=orthogonalEdgeStyle;rounded=0;orthogonalLoop=1;jettySize=auto;html=1;exitX=0.5;exitY=1;exitDx=0;exitDy=0;entryX=0.5;entryY=0;entryDx=0;entryDy=0;" edge="1" parent="WIyWlLk6GJQsqaUBKTNV-1" source="ykPFZneL_9SEnis5VbHR-0" target="ykPFZneL_9SEnis5VbHR-1">
          <mxGeometry relative="1" as="geometry" />
        </mxCell>
        <mxCell id="ykPFZneL_9SEnis5VbHR-0" value="start" style="ellipse;whiteSpace=wrap;html=1;" vertex="1" parent="WIyWlLk6GJQsqaUBKTNV-1">
          <mxGeometry x="-520" width="120" height="80" as="geometry" />
        </mxCell>
        <mxCell id="ykPFZneL_9SEnis5VbHR-19" style="edgeStyle=orthogonalEdgeStyle;rounded=0;orthogonalLoop=1;jettySize=auto;html=1;exitX=0;exitY=0.5;exitDx=0;exitDy=0;entryX=1;entryY=0.5;entryDx=0;entryDy=0;" edge="1" parent="WIyWlLk6GJQsqaUBKTNV-1" source="ykPFZneL_9SEnis5VbHR-1" target="ykPFZneL_9SEnis5VbHR-11">
          <mxGeometry relative="1" as="geometry" />
        </mxCell>
        <mxCell id="ykPFZneL_9SEnis5VbHR-43" style="edgeStyle=orthogonalEdgeStyle;rounded=0;orthogonalLoop=1;jettySize=auto;html=1;exitX=0.5;exitY=1;exitDx=0;exitDy=0;entryX=0.5;entryY=0;entryDx=0;entryDy=0;" edge="1" parent="WIyWlLk6GJQsqaUBKTNV-1" source="ykPFZneL_9SEnis5VbHR-1" target="ykPFZneL_9SEnis5VbHR-4">
          <mxGeometry relative="1" as="geometry" />
        </mxCell>
        <mxCell id="ykPFZneL_9SEnis5VbHR-1" value="is input valid&amp;nbsp;&lt;div&gt;as 2D list ?&lt;/div&gt;" style="rhombus;whiteSpace=wrap;html=1;" vertex="1" parent="WIyWlLk6GJQsqaUBKTNV-1">
          <mxGeometry x="-520" y="110" width="120" height="120" as="geometry" />
        </mxCell>
        <mxCell id="ykPFZneL_9SEnis5VbHR-20" style="edgeStyle=orthogonalEdgeStyle;rounded=0;orthogonalLoop=1;jettySize=auto;html=1;exitX=0;exitY=0.5;exitDx=0;exitDy=0;" edge="1" parent="WIyWlLk6GJQsqaUBKTNV-1" source="ykPFZneL_9SEnis5VbHR-4" target="ykPFZneL_9SEnis5VbHR-13">
          <mxGeometry relative="1" as="geometry" />
        </mxCell>
        <mxCell id="ykPFZneL_9SEnis5VbHR-41" style="edgeStyle=orthogonalEdgeStyle;rounded=0;orthogonalLoop=1;jettySize=auto;html=1;exitX=0.5;exitY=1;exitDx=0;exitDy=0;entryX=0.5;entryY=0;entryDx=0;entryDy=0;" edge="1" parent="WIyWlLk6GJQsqaUBKTNV-1" source="ykPFZneL_9SEnis5VbHR-4" target="ykPFZneL_9SEnis5VbHR-5">
          <mxGeometry relative="1" as="geometry" />
        </mxCell>
        <mxCell id="ykPFZneL_9SEnis5VbHR-4" value="is board square?&lt;span style=&quot;color: rgba(0, 0, 0, 0); font-family: monospace; font-size: 0px; text-align: start; text-wrap-mode: nowrap;&quot;&gt;%3CmxGraphModel%3E%3Croot%3E%3CmxCell%20id%3D%220%22%2F%3E%3CmxCell%20id%3D%221%22%20parent%3D%220%22%2F%3E%3CmxCell%20id%3D%222%22%20value%3D%22is%20input%20valid%26amp%3Bnbsp%3B%26lt%3Bdiv%26gt%3Bas%202D%20list%26lt%3B%2Fdiv%26gt%3B%22%20style%3D%22rhombus%3BwhiteSpace%3Dwrap%3Bhtml%3D1%3B%22%20vertex%3D%221%22%20parent%3D%221%22%3E%3CmxGeometry%20x%3D%22-520%22%20y%3D%22110%22%20width%3D%22120%22%20height%3D%22120%22%20as%3D%22geometry%22%2F%3E%3C%2FmxCell%3E%3C%2Froot%3E%3C%2FmxGraphModel%3E&lt;/span&gt;" style="rhombus;whiteSpace=wrap;html=1;" vertex="1" parent="WIyWlLk6GJQsqaUBKTNV-1">
          <mxGeometry x="-520" y="260" width="120" height="120" as="geometry" />
        </mxCell>
        <mxCell id="ykPFZneL_9SEnis5VbHR-21" style="edgeStyle=orthogonalEdgeStyle;rounded=0;orthogonalLoop=1;jettySize=auto;html=1;exitX=0;exitY=0.5;exitDx=0;exitDy=0;" edge="1" parent="WIyWlLk6GJQsqaUBKTNV-1" source="ykPFZneL_9SEnis5VbHR-5" target="ykPFZneL_9SEnis5VbHR-14">
          <mxGeometry relative="1" as="geometry" />
        </mxCell>
        <mxCell id="ykPFZneL_9SEnis5VbHR-40" style="edgeStyle=orthogonalEdgeStyle;rounded=0;orthogonalLoop=1;jettySize=auto;html=1;exitX=0.5;exitY=1;exitDx=0;exitDy=0;entryX=0.5;entryY=0;entryDx=0;entryDy=0;" edge="1" parent="WIyWlLk6GJQsqaUBKTNV-1" source="ykPFZneL_9SEnis5VbHR-5" target="ykPFZneL_9SEnis5VbHR-6">
          <mxGeometry relative="1" as="geometry" />
        </mxCell>
        <mxCell id="ykPFZneL_9SEnis5VbHR-5" value="is valid&amp;nbsp;&lt;div&gt;subgrid size?&lt;/div&gt;" style="rhombus;whiteSpace=wrap;html=1;" vertex="1" parent="WIyWlLk6GJQsqaUBKTNV-1">
          <mxGeometry x="-520" y="410" width="120" height="120" as="geometry" />
        </mxCell>
        <mxCell id="ykPFZneL_9SEnis5VbHR-22" style="edgeStyle=orthogonalEdgeStyle;rounded=0;orthogonalLoop=1;jettySize=auto;html=1;exitX=0;exitY=0.5;exitDx=0;exitDy=0;" edge="1" parent="WIyWlLk6GJQsqaUBKTNV-1" source="ykPFZneL_9SEnis5VbHR-6" target="ykPFZneL_9SEnis5VbHR-15">
          <mxGeometry relative="1" as="geometry" />
        </mxCell>
        <mxCell id="ykPFZneL_9SEnis5VbHR-39" style="edgeStyle=orthogonalEdgeStyle;rounded=0;orthogonalLoop=1;jettySize=auto;html=1;exitX=0.5;exitY=1;exitDx=0;exitDy=0;entryX=0.5;entryY=0;entryDx=0;entryDy=0;" edge="1" parent="WIyWlLk6GJQsqaUBKTNV-1" source="ykPFZneL_9SEnis5VbHR-6" target="ykPFZneL_9SEnis5VbHR-7">
          <mxGeometry relative="1" as="geometry" />
        </mxCell>
        <mxCell id="ykPFZneL_9SEnis5VbHR-6" value="is all cels valid&amp;nbsp;&lt;div&gt;characters ?&lt;/div&gt;" style="rhombus;whiteSpace=wrap;html=1;" vertex="1" parent="WIyWlLk6GJQsqaUBKTNV-1">
          <mxGeometry x="-520" y="560" width="120" height="120" as="geometry" />
        </mxCell>
        <mxCell id="ykPFZneL_9SEnis5VbHR-23" style="edgeStyle=orthogonalEdgeStyle;rounded=0;orthogonalLoop=1;jettySize=auto;html=1;exitX=0;exitY=0.5;exitDx=0;exitDy=0;" edge="1" parent="WIyWlLk6GJQsqaUBKTNV-1" source="ykPFZneL_9SEnis5VbHR-7" target="ykPFZneL_9SEnis5VbHR-16">
          <mxGeometry relative="1" as="geometry" />
        </mxCell>
        <mxCell id="ykPFZneL_9SEnis5VbHR-38" style="edgeStyle=orthogonalEdgeStyle;rounded=0;orthogonalLoop=1;jettySize=auto;html=1;exitX=0.5;exitY=1;exitDx=0;exitDy=0;entryX=0.5;entryY=0;entryDx=0;entryDy=0;" edge="1" parent="WIyWlLk6GJQsqaUBKTNV-1" source="ykPFZneL_9SEnis5VbHR-7" target="ykPFZneL_9SEnis5VbHR-8">
          <mxGeometry relative="1" as="geometry" />
        </mxCell>
        <mxCell id="ykPFZneL_9SEnis5VbHR-7" value="is all rows valid?" style="rhombus;whiteSpace=wrap;html=1;" vertex="1" parent="WIyWlLk6GJQsqaUBKTNV-1">
          <mxGeometry x="-520" y="700" width="120" height="120" as="geometry" />
        </mxCell>
        <mxCell id="ykPFZneL_9SEnis5VbHR-24" style="edgeStyle=orthogonalEdgeStyle;rounded=0;orthogonalLoop=1;jettySize=auto;html=1;exitX=0;exitY=0.5;exitDx=0;exitDy=0;entryX=1;entryY=0.5;entryDx=0;entryDy=0;" edge="1" parent="WIyWlLk6GJQsqaUBKTNV-1" source="ykPFZneL_9SEnis5VbHR-8" target="ykPFZneL_9SEnis5VbHR-17">
          <mxGeometry relative="1" as="geometry" />
        </mxCell>
        <mxCell id="ykPFZneL_9SEnis5VbHR-37" style="edgeStyle=orthogonalEdgeStyle;rounded=0;orthogonalLoop=1;jettySize=auto;html=1;exitX=0.5;exitY=1;exitDx=0;exitDy=0;entryX=0.5;entryY=0;entryDx=0;entryDy=0;" edge="1" parent="WIyWlLk6GJQsqaUBKTNV-1" source="ykPFZneL_9SEnis5VbHR-8" target="ykPFZneL_9SEnis5VbHR-9">
          <mxGeometry relative="1" as="geometry" />
        </mxCell>
        <mxCell id="ykPFZneL_9SEnis5VbHR-8" value="is all columns&lt;div&gt;&amp;nbsp;valid ?&lt;/div&gt;" style="rhombus;whiteSpace=wrap;html=1;" vertex="1" parent="WIyWlLk6GJQsqaUBKTNV-1">
          <mxGeometry x="-520" y="840" width="120" height="120" as="geometry" />
        </mxCell>
        <mxCell id="ykPFZneL_9SEnis5VbHR-25" style="edgeStyle=orthogonalEdgeStyle;rounded=0;orthogonalLoop=1;jettySize=auto;html=1;exitX=0;exitY=0.5;exitDx=0;exitDy=0;entryX=1;entryY=0.5;entryDx=0;entryDy=0;" edge="1" parent="WIyWlLk6GJQsqaUBKTNV-1" source="ykPFZneL_9SEnis5VbHR-9" target="ykPFZneL_9SEnis5VbHR-18">
          <mxGeometry relative="1" as="geometry" />
        </mxCell>
        <mxCell id="ykPFZneL_9SEnis5VbHR-36" style="edgeStyle=orthogonalEdgeStyle;rounded=0;orthogonalLoop=1;jettySize=auto;html=1;exitX=1;exitY=0.5;exitDx=0;exitDy=0;entryX=0;entryY=0.5;entryDx=0;entryDy=0;" edge="1" parent="WIyWlLk6GJQsqaUBKTNV-1" source="ykPFZneL_9SEnis5VbHR-9" target="ykPFZneL_9SEnis5VbHR-35">
          <mxGeometry relative="1" as="geometry" />
        </mxCell>
        <mxCell id="ykPFZneL_9SEnis5VbHR-9" value="is all subgrids&amp;nbsp;&lt;div&gt;valid?&lt;/div&gt;" style="rhombus;whiteSpace=wrap;html=1;" vertex="1" parent="WIyWlLk6GJQsqaUBKTNV-1">
          <mxGeometry x="-520" y="980" width="120" height="120" as="geometry" />
        </mxCell>
        <mxCell id="ykPFZneL_9SEnis5VbHR-10" value="end" style="ellipse;whiteSpace=wrap;html=1;" vertex="1" parent="WIyWlLk6GJQsqaUBKTNV-1">
          <mxGeometry x="-520" y="1140" width="120" height="80" as="geometry" />
        </mxCell>
        <mxCell id="ykPFZneL_9SEnis5VbHR-11" value="retrun false&amp;nbsp;" style="rounded=0;whiteSpace=wrap;html=1;fillColor=#f8cecc;strokeColor=#b85450;" vertex="1" parent="WIyWlLk6GJQsqaUBKTNV-1">
          <mxGeometry x="-750" y="140" width="120" height="60" as="geometry" />
        </mxCell>
        <mxCell id="ykPFZneL_9SEnis5VbHR-13" value="retrun false&amp;nbsp;" style="rounded=0;whiteSpace=wrap;html=1;fillColor=#f8cecc;strokeColor=#b85450;" vertex="1" parent="WIyWlLk6GJQsqaUBKTNV-1">
          <mxGeometry x="-750" y="290" width="120" height="60" as="geometry" />
        </mxCell>
        <mxCell id="ykPFZneL_9SEnis5VbHR-14" value="retrun false&amp;nbsp;" style="rounded=0;whiteSpace=wrap;html=1;fillColor=#f8cecc;strokeColor=#b85450;" vertex="1" parent="WIyWlLk6GJQsqaUBKTNV-1">
          <mxGeometry x="-750" y="440" width="120" height="60" as="geometry" />
        </mxCell>
        <mxCell id="ykPFZneL_9SEnis5VbHR-15" value="retrun false&amp;nbsp;" style="rounded=0;whiteSpace=wrap;html=1;fillColor=#f8cecc;strokeColor=#b85450;" vertex="1" parent="WIyWlLk6GJQsqaUBKTNV-1">
          <mxGeometry x="-740" y="590" width="120" height="60" as="geometry" />
        </mxCell>
        <mxCell id="ykPFZneL_9SEnis5VbHR-16" value="retrun false&amp;nbsp;" style="rounded=0;whiteSpace=wrap;html=1;fillColor=#f8cecc;strokeColor=#b85450;" vertex="1" parent="WIyWlLk6GJQsqaUBKTNV-1">
          <mxGeometry x="-740" y="730" width="120" height="60" as="geometry" />
        </mxCell>
        <mxCell id="ykPFZneL_9SEnis5VbHR-17" value="retrun false&amp;nbsp;" style="rounded=0;whiteSpace=wrap;html=1;fillColor=#f8cecc;strokeColor=#b85450;" vertex="1" parent="WIyWlLk6GJQsqaUBKTNV-1">
          <mxGeometry x="-740" y="870" width="120" height="60" as="geometry" />
        </mxCell>
        <mxCell id="ykPFZneL_9SEnis5VbHR-18" value="retrun false&amp;nbsp;" style="rounded=0;whiteSpace=wrap;html=1;fillColor=#f8cecc;strokeColor=#b85450;" vertex="1" parent="WIyWlLk6GJQsqaUBKTNV-1">
          <mxGeometry x="-740" y="1010" width="120" height="60" as="geometry" />
        </mxCell>
        <mxCell id="ykPFZneL_9SEnis5VbHR-26" value="" style="endArrow=none;html=1;rounded=0;" edge="1" parent="WIyWlLk6GJQsqaUBKTNV-1">
          <mxGeometry width="50" height="50" relative="1" as="geometry">
            <mxPoint x="-840" y="1200" as="sourcePoint" />
            <mxPoint x="-840" y="160" as="targetPoint" />
            <Array as="points" />
          </mxGeometry>
        </mxCell>
        <mxCell id="ykPFZneL_9SEnis5VbHR-27" value="" style="endArrow=none;html=1;rounded=0;entryX=0;entryY=0.25;entryDx=0;entryDy=0;" edge="1" parent="WIyWlLk6GJQsqaUBKTNV-1" target="ykPFZneL_9SEnis5VbHR-11">
          <mxGeometry width="50" height="50" relative="1" as="geometry">
            <mxPoint x="-840" y="154.28571428571428" as="sourcePoint" />
            <mxPoint x="-340" y="680" as="targetPoint" />
          </mxGeometry>
        </mxCell>
        <mxCell id="ykPFZneL_9SEnis5VbHR-28" value="" style="endArrow=none;html=1;rounded=0;entryX=0;entryY=0.25;entryDx=0;entryDy=0;" edge="1" parent="WIyWlLk6GJQsqaUBKTNV-1">
          <mxGeometry width="50" height="50" relative="1" as="geometry">
            <mxPoint x="-840" y="319.2857142857143" as="sourcePoint" />
            <mxPoint x="-750" y="320" as="targetPoint" />
          </mxGeometry>
        </mxCell>
        <mxCell id="ykPFZneL_9SEnis5VbHR-29" value="" style="endArrow=none;html=1;rounded=0;entryX=0;entryY=0.25;entryDx=0;entryDy=0;" edge="1" parent="WIyWlLk6GJQsqaUBKTNV-1">
          <mxGeometry width="50" height="50" relative="1" as="geometry">
            <mxPoint x="-840" y="469.2857142857143" as="sourcePoint" />
            <mxPoint x="-750" y="470" as="targetPoint" />
          </mxGeometry>
        </mxCell>
        <mxCell id="ykPFZneL_9SEnis5VbHR-30" value="" style="endArrow=none;html=1;rounded=0;entryX=0;entryY=0.5;entryDx=0;entryDy=0;" edge="1" parent="WIyWlLk6GJQsqaUBKTNV-1" target="ykPFZneL_9SEnis5VbHR-15">
          <mxGeometry width="50" height="50" relative="1" as="geometry">
            <mxPoint x="-840" y="619.2857142857142" as="sourcePoint" />
            <mxPoint x="-750" y="620" as="targetPoint" />
          </mxGeometry>
        </mxCell>
        <mxCell id="ykPFZneL_9SEnis5VbHR-31" value="" style="endArrow=none;html=1;rounded=0;entryX=0;entryY=0.5;entryDx=0;entryDy=0;" edge="1" parent="WIyWlLk6GJQsqaUBKTNV-1">
          <mxGeometry width="50" height="50" relative="1" as="geometry">
            <mxPoint x="-840" y="759.2857142857142" as="sourcePoint" />
            <mxPoint x="-740" y="760" as="targetPoint" />
          </mxGeometry>
        </mxCell>
        <mxCell id="ykPFZneL_9SEnis5VbHR-32" value="" style="endArrow=none;html=1;rounded=0;entryX=0;entryY=0.5;entryDx=0;entryDy=0;" edge="1" parent="WIyWlLk6GJQsqaUBKTNV-1">
          <mxGeometry width="50" height="50" relative="1" as="geometry">
            <mxPoint x="-840" y="899.2857142857142" as="sourcePoint" />
            <mxPoint x="-740" y="900" as="targetPoint" />
          </mxGeometry>
        </mxCell>
        <mxCell id="ykPFZneL_9SEnis5VbHR-33" value="" style="endArrow=none;html=1;rounded=0;entryX=0;entryY=0.5;entryDx=0;entryDy=0;" edge="1" parent="WIyWlLk6GJQsqaUBKTNV-1">
          <mxGeometry width="50" height="50" relative="1" as="geometry">
            <mxPoint x="-840" y="1039.2857142857142" as="sourcePoint" />
            <mxPoint x="-740" y="1040" as="targetPoint" />
          </mxGeometry>
        </mxCell>
        <mxCell id="ykPFZneL_9SEnis5VbHR-34" value="" style="endArrow=none;html=1;rounded=0;entryX=0.07;entryY=0.698;entryDx=0;entryDy=0;entryPerimeter=0;" edge="1" parent="WIyWlLk6GJQsqaUBKTNV-1" target="ykPFZneL_9SEnis5VbHR-10">
          <mxGeometry width="50" height="50" relative="1" as="geometry">
            <mxPoint x="-840" y="1199.9957142857143" as="sourcePoint" />
            <mxPoint x="-740" y="1200.71" as="targetPoint" />
          </mxGeometry>
        </mxCell>
        <mxCell id="ykPFZneL_9SEnis5VbHR-44" style="edgeStyle=orthogonalEdgeStyle;rounded=0;orthogonalLoop=1;jettySize=auto;html=1;exitX=0.5;exitY=1;exitDx=0;exitDy=0;entryX=1;entryY=0.5;entryDx=0;entryDy=0;" edge="1" parent="WIyWlLk6GJQsqaUBKTNV-1" source="ykPFZneL_9SEnis5VbHR-35" target="ykPFZneL_9SEnis5VbHR-10">
          <mxGeometry relative="1" as="geometry" />
        </mxCell>
        <mxCell id="ykPFZneL_9SEnis5VbHR-35" value="retrun true" style="rounded=0;whiteSpace=wrap;html=1;fillColor=#d5e8d4;strokeColor=#82b366;" vertex="1" parent="WIyWlLk6GJQsqaUBKTNV-1">
          <mxGeometry x="-340" y="1010" width="120" height="60" as="geometry" />
        </mxCell>
        <mxCell id="ykPFZneL_9SEnis5VbHR-45" value="no" style="text;html=1;align=center;verticalAlign=middle;whiteSpace=wrap;rounded=0;" vertex="1" parent="WIyWlLk6GJQsqaUBKTNV-1">
          <mxGeometry x="-600" y="150" width="60" height="30" as="geometry" />
        </mxCell>
        <mxCell id="ykPFZneL_9SEnis5VbHR-46" value="no" style="text;html=1;align=center;verticalAlign=middle;whiteSpace=wrap;rounded=0;" vertex="1" parent="WIyWlLk6GJQsqaUBKTNV-1">
          <mxGeometry x="-600" y="290" width="60" height="30" as="geometry" />
        </mxCell>
        <mxCell id="ykPFZneL_9SEnis5VbHR-47" value="no" style="text;html=1;align=center;verticalAlign=middle;whiteSpace=wrap;rounded=0;" vertex="1" parent="WIyWlLk6GJQsqaUBKTNV-1">
          <mxGeometry x="-600" y="440" width="60" height="30" as="geometry" />
        </mxCell>
        <mxCell id="ykPFZneL_9SEnis5VbHR-49" value="no" style="text;html=1;align=center;verticalAlign=middle;whiteSpace=wrap;rounded=0;" vertex="1" parent="WIyWlLk6GJQsqaUBKTNV-1">
          <mxGeometry x="-600" y="590" width="60" height="30" as="geometry" />
        </mxCell>
        <mxCell id="ykPFZneL_9SEnis5VbHR-50" value="no" style="text;html=1;align=center;verticalAlign=middle;whiteSpace=wrap;rounded=0;" vertex="1" parent="WIyWlLk6GJQsqaUBKTNV-1">
          <mxGeometry x="-600" y="730" width="60" height="30" as="geometry" />
        </mxCell>
        <mxCell id="ykPFZneL_9SEnis5VbHR-51" value="no" style="text;html=1;align=center;verticalAlign=middle;whiteSpace=wrap;rounded=0;" vertex="1" parent="WIyWlLk6GJQsqaUBKTNV-1">
          <mxGeometry x="-600" y="870" width="60" height="30" as="geometry" />
        </mxCell>
        <mxCell id="ykPFZneL_9SEnis5VbHR-52" value="no" style="text;html=1;align=center;verticalAlign=middle;whiteSpace=wrap;rounded=0;" vertex="1" parent="WIyWlLk6GJQsqaUBKTNV-1">
          <mxGeometry x="-600" y="1010" width="60" height="30" as="geometry" />
        </mxCell>
      </root>
    </mxGraphModel>
  </diagram>
</mxfile>
